<svg xmlns="http://www.w3.org/2000/svg" width="900" height="600" viewBox="0 0 3 2">
  <!-- شريط علوي أخضر -->
  <rect width="3" height="0.6666667" y="0" fill="#007a3d"/>
  <!-- شريط أوسط أبيض -->
  <rect width="3" height="0.6666667" y="0.6666667" fill="#ffffff"/>
  <!-- شريط سفلي أسود -->
  <rect width="3" height="0.6666667" y="1.3333334" fill="#000000"/>
  
  <!-- ثلاث نجوم حمراء في الوسط -->
  <g fill="#ce1126" transform="translate(1.0,1)">
    <polygon points="0,-0.15 0.043,-0.05 0.14,-0.05 0.057,0.016 0.09,0.12 0,0.06 -0.09,0.12 -0.057,0.016 -0.14,-0.05 -0.043,-0.05"/>
  </g>
  <g fill="#ce1126" transform="translate(1.5,1)">
    <polygon points="0,-0.15 0.043,-0.05 0.14,-0.05 0.057,0.016 0.09,0.12 0,0.06 -0.09,0.12 -0.057,0.016 -0.14,-0.05 -0.043,-0.05"/>
  </g>
  <g fill="#ce1126" transform="translate(2.0,1)">
    <polygon points="0,-0.15 0.043,-0.05 0.14,-0.05 0.057,0.016 0.09,0.12 0,0.06 -0.09,0.12 -0.057,0.016 -0.14,-0.05 -0.043,-0.05"/>
  </g>
</svg>
